<svg xmlns="http://www.w3.org/2000/svg" width="40" height="40" viewBox="0 0 40 40">
  <g id="instagram-icon" transform="translate(-1473 -901)">
    <circle id="Ellipse_9" data-name="Ellipse 9" cx="20" cy="20" r="20" transform="translate(1473 901)" fill="#224022"/>
    <path id="Path_5" data-name="Path 5" d="M9717.344,8970h-5.67a4.67,4.67,0,0,0-4.674,4.657v5.668a4.67,4.67,0,0,0,4.674,4.675h5.67a4.666,4.666,0,0,0,4.656-4.675v-5.668a4.666,4.666,0,0,0-4.656-4.657Zm1.7,3.526a.575.575,0,0,0-.571-.557.565.565,0,1,0,0,1.129A.577.577,0,0,0,9719.047,8973.526Zm-4.539.253a3.743,3.743,0,1,0,2.617,1.1A3.716,3.716,0,0,0,9714.508,8973.779Zm0,6.143a2.43,2.43,0,1,1,1.705-4.135,2.361,2.361,0,0,1,.727,1.7,2.453,2.453,0,0,1-2.432,2.431Zm6.211.4a3.4,3.4,0,0,1-3.375,3.392h-5.67a3.4,3.4,0,0,1-3.392-3.392v-5.668a3.4,3.4,0,0,1,3.392-3.375h5.67a3.4,3.4,0,0,1,3.375,3.375Z" transform="translate(-8221.5 -8056.5)" fill="#d7d2ff" fill-rule="evenodd"/>
  </g>
</svg>
