<svg xmlns="http://www.w3.org/2000/svg" width="40" height="40" viewBox="0 0 40 40">
  <g id="twitter-icon" transform="translate(-1438 -901)">
    <circle id="Ellipse_8" data-name="Ellipse 8" cx="20" cy="20" r="20" transform="translate(1438 901)" fill="#224022"/>
    <path id="Path_6" data-name="Path 6" d="M537,6284.556a9.377,9.377,0,0,0,14.381-7.923v-.379a7.282,7.282,0,0,0,1.619-1.687,7.187,7.187,0,0,1-1.86.482h0a3.419,3.419,0,0,0,1.429-1.826,10.321,10.321,0,0,1-1.585.672c-.155.052-.327.1-.482.155a3.264,3.264,0,0,0-2.411-1.05,3.3,3.3,0,0,0-3.29,3.29,3.477,3.477,0,0,0,.086.74,9.842,9.842,0,0,1-6.751-3.41s-1.567,2.154.947,4.357a3.408,3.408,0,0,1-1.429-.43,3.136,3.136,0,0,0,2.6,3.272,3,3,0,0,1-1.447.051,3.256,3.256,0,0,0,3.014,2.308,6.324,6.324,0,0,1-4.822,1.378Z" transform="translate(913.632 -5358.499)" fill="#d7d2ff" fill-rule="evenodd"/>
  </g>
</svg>
