<svg xmlns="http://www.w3.org/2000/svg" width="40" height="40" viewBox="0 0 40 40">
  <g id="youtube-icon" transform="translate(-1368 -901)">
    <circle id="Ellipse_6" data-name="Ellipse 6" cx="20" cy="20" r="20" transform="translate(1368 901)" fill="#224022"/>
    <path id="Path_7" data-name="Path 7" d="M504.662,3466.754a2,2,0,0,0-1.417-1.417,58.038,58.038,0,0,0-12.507,0,2.028,2.028,0,0,0-1.416,1.417,23.148,23.148,0,0,0,0,7.695,2.029,2.029,0,0,0,1.416,1.416,47.52,47.52,0,0,0,6.262.338,49.516,49.516,0,0,0,6.245-.322,2,2,0,0,0,1.417-1.417,22.154,22.154,0,0,0,0-7.71ZM495.406,3473l4.153-2.4-4.153-2.4Z" transform="translate(891.632 -2549.479)" fill="#d7d2ff" fill-rule="evenodd"/>
  </g>
</svg>
